<svg xmlns="http://www.w3.org/2000/svg" xmlns:xlink="http://www.w3.org/1999/xlink" width="1000" zoomAndPan="magnify" viewBox="0 0 750 749.999995" height="1000" preserveAspectRatio="xMidYMid meet" version="1.0"><defs><clipPath id="c03f9f2ff6"><path d="M 262.5 280.910156 L 488 280.910156 L 488 469.089844 L 262.5 469.089844 Z M 262.5 280.910156 " clip-rule="nonzero"/></clipPath><clipPath id="61b612b383"><path d="M 487.5 337.832031 C 486.007812 302.800781 461.4375 280.910156 429.296875 280.910156 C 404.882812 280.910156 382.261719 295.613281 372.789062 316.457031 C 363.683594 295.613281 341.9375 280.910156 318.460938 280.910156 C 287.554688 280.910156 263.933594 302.800781 262.5 337.832031 C 262.5 410.59375 318.28125 446.285156 372.789062 469.089844 C 429.488281 446.289062 487.5 410.601562 487.5 337.832031 Z M 487.5 337.832031 " clip-rule="nonzero"/></clipPath><clipPath id="ccc9dc86ae"><path d="M 0.5 0.910156 L 225.679688 0.910156 L 225.679688 189.089844 L 0.5 189.089844 Z M 0.5 0.910156 " clip-rule="nonzero"/></clipPath><clipPath id="2e56df6b26"><path d="M 225.5 57.832031 C 224.007812 22.800781 199.4375 0.910156 167.296875 0.910156 C 142.882812 0.910156 120.261719 15.613281 110.789062 36.457031 C 101.683594 15.613281 79.9375 0.910156 56.460938 0.910156 C 25.554688 0.910156 1.933594 22.800781 0.5 57.832031 C 0.5 130.59375 56.28125 166.285156 110.789062 189.089844 C 167.488281 166.289062 225.5 130.601562 225.5 57.832031 Z M 225.5 57.832031 " clip-rule="nonzero"/></clipPath><clipPath id="454590e777"><rect x="0" width="226" y="0" height="190"/></clipPath></defs><g clip-path="url(#c03f9f2ff6)"><g clip-path="url(#61b612b383)"><g transform="matrix(1, 0, 0, 1, 262, 280)"><g clip-path="url(#454590e777)"><g clip-path="url(#ccc9dc86ae)"><g clip-path="url(#2e56df6b26)"><path fill="#ff4fc0" d="M 0.5 0.910156 L 225.4375 0.910156 L 225.4375 189.089844 L 0.5 189.089844 Z M 0.5 0.910156 " fill-opacity="1" fill-rule="nonzero"/></g></g></g></g></g></g></svg>
